<svg width="110" height="106" viewBox="0 0 110 106" fill="none" xmlns="http://www.w3.org/2000/svg">
<g filter="url(#filter0_b_1_109)">
<path d="M78.9371 69.6666C77.5188 70.4853 76.5931 71.9522 76.459 73.5852L74.9296 96.235C74.7985 98.1544 73.5565 99.818 71.7529 100.493C69.9702 101.216 67.9333 100.844 66.5121 99.5507L49.5643 84.4773C48.9768 83.9458 48.2725 83.5628 47.5074 83.3471L46.314 83.0473C45.8845 83.0049 45.4462 83.0352 45.0254 83.1448L22.9487 88.4638C21.8626 88.7058 20.7273 88.6032 19.7004 88.1625C17.2174 87.0142 16.102 84.0935 17.1875 81.5806L26.551 60.8993C27.2081 59.3837 27.088 57.6446 26.2296 56.2351L14.2008 36.8264C13.1951 35.202 13.2196 33.1482 14.2666 31.5526C15.2949 29.957 17.1207 29.0628 19.0114 29.2336L41.6955 31.5581C43.4033 31.8046 45.1198 31.1591 46.2447 29.85L60.8571 12.5008C61.1968 12.1179 61.5936 11.7869 62.0366 11.5331L62.5104 11.3244C62.7749 11.1474 63.0603 11.0178 63.3633 10.9301L63.8875 10.8745L64.7136 10.7544L66.5676 11.2203C68.1802 11.8081 69.3889 13.1652 69.7789 14.8362L74.6044 36.9761C74.9472 38.5932 76.0655 39.937 77.5856 40.5764L98.6741 49.251C100.457 49.98 101.682 51.6455 101.852 53.5608C101.985 55.4716 101 57.2842 99.3241 58.216L78.9371 69.6666Z" fill="#FFAC95" fill-opacity="0.4"/>
<path d="M75.4285 96.2687L75.4285 96.2691C75.2841 98.3824 73.9178 100.214 71.9344 100.959C69.9744 101.751 67.7382 101.341 66.1776 99.9224C66.1769 99.9218 66.1762 99.9211 66.1755 99.9205L49.232 84.8509L49.2288 84.8481C48.7022 84.3716 48.0693 84.0261 47.3785 83.8303L46.2293 83.5415C45.8672 83.5097 45.5009 83.5376 45.1514 83.6287L45.1425 83.631L45.1425 83.6309L23.0659 88.9499L23.0575 88.9519L23.0575 88.9518C21.8697 89.2165 20.6274 89.1044 19.5032 88.622L19.4905 88.6165L19.4905 88.6164C16.7612 87.3542 15.5355 84.144 16.7285 81.3823L16.732 81.3744L16.7321 81.3744L26.0923 60.7004C26.0928 60.6992 26.0933 60.698 26.0938 60.6969C26.6843 59.3316 26.5758 57.7661 25.8035 56.4968C25.8032 56.4962 25.8029 56.4957 25.8025 56.4952L13.7758 37.0898L13.7757 37.0896C12.6684 35.301 12.6945 33.0385 13.8474 31.28C14.9764 29.5297 16.9806 28.5481 19.0564 28.7356L19.0624 28.7361L19.0623 28.7362L41.7465 31.0607C41.7533 31.0614 41.7602 31.0622 41.767 31.0632C43.3043 31.2851 44.8501 30.7045 45.8638 29.526C45.8644 29.5254 45.8649 29.5247 45.8654 29.5241L60.4747 12.1787L60.483 12.1688L60.4831 12.1689C60.8558 11.7488 61.2943 11.3822 61.7881 11.0993C61.8033 11.0905 61.819 11.0826 61.8351 11.0755L62.2704 10.8838C62.5692 10.6895 62.889 10.5469 63.2242 10.4498C63.2524 10.4416 63.2814 10.436 63.3106 10.4329L63.8252 10.3784L64.6417 10.2596C64.7063 10.2502 64.7721 10.2536 64.8355 10.2695L66.6894 10.7353C66.7061 10.7395 66.7226 10.7446 66.7388 10.7505C68.5091 11.3958 69.8372 12.8862 70.2658 14.7226L70.2675 14.7297L70.2674 14.7298L75.0929 36.8697L75.0935 36.8725C75.402 38.3275 76.4085 39.5382 77.7778 40.1148C77.7783 40.1151 77.7789 40.1153 77.7795 40.1155L98.8633 48.7882C98.8635 48.7883 98.8637 48.7884 98.864 48.7885L98.8643 48.7886L75.4285 96.2687ZM75.4285 96.2687L76.9573 73.6261L75.4285 96.2687Z" stroke="url(#paint0_linear_1_109)" stroke-linecap="round" stroke-linejoin="round"/>
</g>
<defs>
<filter id="filter0_b_1_109" x="-11.5364" y="-14.2456" width="138.4" height="140.103" filterUnits="userSpaceOnUse" color-interpolation-filters="sRGB">
<feFlood flood-opacity="0" result="BackgroundImageFix"/>
<feGaussianBlur in="BackgroundImageFix" stdDeviation="12"/>
<feComposite in2="SourceAlpha" operator="in" result="effect1_backgroundBlur_1_109"/>
<feBlend mode="normal" in="SourceGraphic" in2="effect1_backgroundBlur_1_109" result="shape"/>
</filter>
<linearGradient id="paint0_linear_1_109" x1="33.4869" y1="13.2717" x2="68.9457" y2="95.2793" gradientUnits="userSpaceOnUse">
<stop stop-color="white" stop-opacity="0.25"/>
<stop offset="1" stop-color="white" stop-opacity="0"/>
</linearGradient>
</defs>
</svg>
